HIERARCHY
ROOT root
{
	OFFSET 0.000000 0.000000 0.000000
	CHANNELS 6 Xposition Yposition Zposition Zrotation Yrotation Xrotation
	JOINT lhip
	{
		OFFSET 0.058581 -0.082280 -0.017664
		CHANNELS 3 Zrotation Yrotation Xrotation
		JOINT lknee
		{
			OFFSET 0.043451 -0.386469 0.008037
			CHANNELS 3 Zrotation Yrotation Xrotation
			JOINT lankle
			{
				OFFSET -0.014790 -0.426874 -0.037428
				CHANNELS 3 Zrotation Yrotation Xrotation
				JOINT ltoe
				{
					OFFSET 0.041054 -0.060286 0.122042
					CHANNELS 3 Zrotation Yrotation Xrotation
					End Site
					{
						OFFSET 0.000000 0.000000 0.000000
					}
				}
			}
		}
	}
	JOINT rhip
	{
		OFFSET -0.060310 -0.090513 -0.013543
		CHANNELS 3 Zrotation Yrotation Xrotation
		JOINT rknee
		{
			OFFSET -0.043257 -0.383688 -0.004843
			CHANNELS 3 Zrotation Yrotation Xrotation
			JOINT rankle
			{
				OFFSET 0.019056 -0.420046 -0.034562
				CHANNELS 3 Zrotation Yrotation Xrotation
				JOINT rtoe
				{
					OFFSET -0.034840 -0.062106 0.130323
					CHANNELS 3 Zrotation Yrotation Xrotation
					End Site
					{
						OFFSET 0.000000 0.000000 0.000000
					}
				}
			}
		}
	}
	JOINT lowerback
	{
		OFFSET 0.004439 0.124404 -0.038385
		CHANNELS 3 Zrotation Yrotation Xrotation
		JOINT upperback
		{
			OFFSET 0.004488 0.137956 0.026820
			CHANNELS 3 Zrotation Yrotation Xrotation
			JOINT chest
			{
				OFFSET -0.002265 0.056032 0.002855
				CHANNELS 3 Zrotation Yrotation Xrotation
				JOINT lowerneck
				{
					OFFSET -0.013390 0.211636 -0.033468
					CHANNELS 3 Zrotation Yrotation Xrotation
					JOINT upperneck
					{
						OFFSET 0.010113 0.088937 0.050410
						CHANNELS 3 Zrotation Yrotation Xrotation
						End Site
						{
							OFFSET 0.000000 0.000000 0.000000
						}
					}
				}
				JOINT lclavicle
				{
					OFFSET 0.071702 0.114000 -0.018898
					CHANNELS 3 Zrotation Yrotation Xrotation
					JOINT lshoulder
					{
						OFFSET 0.122921 0.045205 -0.019046
						CHANNELS 3 Zrotation Yrotation Xrotation
						JOINT lelbow
						{
							OFFSET 0.255332 -0.015649 -0.022946
							CHANNELS 3 Zrotation Yrotation Xrotation
							JOINT lwrist
							{
								OFFSET 0.265709 0.012698 -0.007375
								CHANNELS 3 Zrotation Yrotation Xrotation
								End Site
								{
									OFFSET 0.000000 0.000000 0.000000
								}
							}
						}
					}
				}
				JOINT rclavicle
				{
					OFFSET -0.082954 0.112472 -0.023707
					CHANNELS 3 Zrotation Yrotation Xrotation
					JOINT rshoulder
					{
						OFFSET -0.113228 0.046853 -0.008472
						CHANNELS 3 Zrotation Yrotation Xrotation
						JOINT relbow
						{
							OFFSET -0.260127 -0.014369 -0.031269
							CHANNELS 3 Zrotation Yrotation Xrotation
							JOINT rwrist
							{
								OFFSET -0.269108 0.006794 -0.006027
								CHANNELS 3 Zrotation Yrotation Xrotation
								End Site
								{
									OFFSET 0.000000 0.000000 0.000000
								}
							}
						}
					}
				}
			}
		}
	}
}
MOTION
Frames: 9
Frame Time: 0.033333
1.243278 0.708762 0.993633 -92.418725 0.352238 83.752031 -1.759058 -0.537153 3.331437 0.496681 -6.118745 4.350842 2.837576 11.329253 -11.642170 0.000000 -0.000000 0.000000 1.486259 -1.346087 3.250709 -2.715537 2.072827 6.798979 1.877850 -8.328952 -16.127076 0.000000 -0.000000 0.000000 -1.230060 3.248947 8.282902 -0.858940 -2.746183 4.130993 -1.136077 0.077135 -2.867832 2.809202 1.090890 -9.336460 5.818416 -0.779283 2.202843 -28.206640 -6.649344 -0.405856 -51.921943 -8.692795 11.675152 4.359883 -25.858692 -0.712035 -5.324887 -5.262264 0.834792 27.836634 8.968454 0.672627 58.273405 6.731494 15.982607 -11.569230 27.637582 -1.622920 4.473791 4.497167 5.660559 
1.242905 0.710022 0.993077 -93.907629 0.249504 84.099729 -1.680801 -0.297564 2.931552 0.352895 -5.510559 4.648304 2.924977 11.923228 -11.548616 0.000000 -0.000000 0.000000 1.573277 -0.304694 2.551714 -2.633620 2.697325 7.242553 1.821611 -8.181693 -16.326113 0.000000 -0.000000 0.000000 -1.412975 3.377870 8.607227 -0.778147 -2.495388 3.318261 -0.960480 0.041808 -2.594995 2.668216 1.721233 -9.405092 5.888785 -0.002989 1.493672 -27.770004 -6.131892 -0.856005 -52.662438 -8.238514 12.004848 4.614951 -24.717551 -0.824438 -6.210532 -4.983063 0.889697 27.530513 8.636221 0.574884 58.854244 6.310235 16.492917 -11.501960 27.644976 -0.912045 5.614126 4.288507 5.082900 
1.241587 0.710613 0.993190 -94.956997 0.093125 84.206178 -1.793265 -0.092885 3.109594 0.344442 -5.277456 4.451513 2.991745 12.407141 -11.434915 0.000000 -0.000000 0.000000 1.503223 0.105123 2.129733 -2.748111 2.892192 7.761260 1.691915 -8.053043 -14.828690 0.000000 -0.000000 0.000000 -1.521888 3.134672 8.775727 -0.738455 -2.511737 3.300606 -0.894997 0.032469 -2.590082 2.668468 2.264474 -9.781600 5.841524 0.806008 0.607709 -27.532268 -5.592287 -0.900617 -53.061955 -7.661772 11.817676 5.094441 -23.868711 -1.046466 -7.289445 -4.893819 1.195040 27.290331 8.316544 0.568077 58.836591 6.109192 16.415429 -11.340284 27.645331 -0.445452 6.493749 4.112989 5.409647 
1.239430 0.711983 0.993561 -95.988809 -0.012094 84.255301 -1.767659 0.151354 3.657944 0.360041 -5.086596 3.898449 2.979806 12.588786 -11.282268 0.000000 -0.000000 0.000000 1.605940 0.334511 2.067946 -3.060820 3.032271 7.713733 1.354979 -7.700325 -12.543618 0.000000 -0.000000 0.000000 -1.601842 2.838316 8.027608 -0.722627 -2.710485 4.770334 -0.890918 -0.018572 -2.660167 2.691959 3.248642 -10.281745 5.875802 1.607443 -0.685120 -27.516093 -5.561584 -0.426578 -53.057946 -7.220082 11.055329 5.879536 -22.816817 -2.188048 -8.000890 -4.787070 1.485311 27.114602 8.467882 0.651529 58.329928 6.096326 15.918753 -11.619937 27.229255 -0.804707 6.960480 3.824425 5.661179 
1.238623 0.712558 0.993916 -96.085032 0.050390 84.404014 -1.693407 0.248329 3.617197 0.465810 -5.063218 3.801637 2.920368 12.597614 -11.297138 0.000000 -0.000000 0.000000 1.687050 0.137420 1.952311 -3.199168 2.894611 7.561842 1.422596 -7.606703 -11.920038 0.000000 -0.000000 0.000000 -1.500674 2.563441 8.308807 -0.706684 -2.946994 4.589276 -0.822357 -0.032228 -2.659581 2.639532 3.221987 -10.657562 5.757944 2.000581 -1.160447 -27.458052 -5.146779 -0.485841 -53.139434 -6.789252 10.796968 6.060897 -22.300765 -2.282765 -7.750149 -4.835113 1.329260 26.824683 7.812685 0.187672 58.086729 5.660226 15.526838 -11.563941 27.022872 -0.663308 6.533584 3.886669 5.993695 
1.237048 0.713812 0.994512 -97.033473 -0.117906 84.752469 -1.806735 0.815399 3.903197 0.681465 -4.856541 2.962805 2.730409 12.881227 -11.321662 0.000000 -0.000000 0.000000 1.576489 0.351764 1.768115 -3.230628 3.053139 7.209722 1.642901 -7.382052 -11.524920 0.000000 -0.000000 0.000000 -1.449040 2.452795 7.578708 -0.767845 -2.744586 5.489996 -1.040740 0.093474 -2.733992 2.453797 3.710599 -10.843181 5.749761 2.043604 -2.116562 -27.443284 -5.080816 -0.451460 -52.932333 -6.385531 10.558016 6.275760 -21.325430 -2.973890 -7.904851 -4.991179 1.899534 26.656464 7.783761 0.249223 57.394565 5.207570 14.976700 -11.892964 26.516508 -1.307544 5.725574 4.208092 6.411101 
1.237242 0.715278 0.994882 -97.139811 -0.115316 85.324272 -1.705602 1.061584 3.474878 0.749696 -5.022820 2.639722 2.550489 13.038453 -11.681583 0.000000 -0.000000 0.000000 1.581339 0.283695 1.337834 -3.134455 2.842071 6.726008 1.832590 -7.557268 -11.042983 0.000000 -0.000000 0.000000 -1.425623 2.247198 8.032924 -0.771778 -2.786332 4.663997 -1.058206 0.117484 -2.845111 2.310234 3.502263 -10.737585 5.948982 2.421662 -2.649796 -27.174782 -4.549899 -0.802202 -52.971933 -5.666548 11.046438 5.978198 -20.618303 -2.498553 -7.389455 -4.945077 2.219905 26.094088 7.162844 0.073876 56.769741 4.121223 14.887118 -11.486470 26.623081 -1.030865 4.951657 4.621634 6.314256 
1.236864 0.716030 0.995054 -96.617007 -0.194190 85.920999 -1.955407 0.939509 2.890321 1.022627 -5.583715 2.580767 2.693997 13.432389 -12.552250 0.000000 -0.000000 0.000000 1.455214 -0.100844 0.935416 -3.035103 2.761381 6.366103 1.885412 -7.969285 -10.920980 0.000000 -0.000000 0.000000 -1.383593 2.254847 7.280191 -0.676128 -3.119193 5.535265 -1.277808 -0.062511 -3.088672 2.193842 3.150339 -10.728130 6.194485 2.202409 -3.439357 -27.149762 -4.583825 -1.040871 -52.515257 -5.268443 11.356997 5.423150 -20.285341 -2.624260 -8.243703 -4.710339 2.825123 25.554122 6.846998 0.037926 55.782999 2.765690 14.866828 -10.636785 27.436832 -0.209982 5.657654 4.852359 6.659848 
1.236913 0.716873 0.994816 -95.955442 -0.134262 86.375975 -2.008765 1.267445 2.309319 1.479316 -4.902498 2.886198 3.249241 14.217514 -13.679573 0.000000 -0.000000 0.000000 1.639094 -0.309395 0.476120 -3.059809 2.665272 6.369959 2.004332 -8.465302 -11.165967 0.000000 -0.000000 0.000000 -1.339300 2.019068 7.392826 -0.623845 -3.325784 5.271903 -1.429667 -0.159175 -2.930963 2.343887 2.758422 -10.984356 6.311944 2.244468 -4.030368 -27.143673 -4.486463 -1.463559 -52.132337 -4.894322 11.848098 4.958369 -20.277299 -2.055369 -8.025703 -4.671185 3.295228 24.987829 6.332739 -0.254123 54.879409 1.414440 15.359319 -9.223787 28.191072 1.566309 5.526865 4.883225 7.172791 
